<?xml version="1.0"?>
<svg xmlns="http://www.w3.org/2000/svg" xmlns:xlink="http://www.w3.org/1999/xlink" version="1.1" id="Capa_1" x="0px" y="0px" viewBox="0 0 512 512" style="enable-background:new 0 0 512 512;" xml:space="preserve" width="512px" height="512px"><g transform="matrix(-6.12323e-17 -1 1 -6.12323e-17 3.13510e-14 512)"><g>
	<g>
		<path d="M506.816,244.199l-192-176c-4.672-4.256-11.488-5.408-17.248-2.848c-5.824,2.56-9.568,8.32-9.568,14.656v352    c0,6.336,3.744,12.096,9.568,14.656c2.048,0.896,4.256,1.344,6.432,1.344c3.936,0,7.808-1.44,10.816-4.224l192-176    c3.296-3.008,5.184-7.296,5.184-11.776C512,251.527,510.112,247.239,506.816,244.199z" class="active-path" fill="#bdbdbd"/>
	</g>
</g><g>
	<g>
		<path d="M214.432,65.351c-5.792-2.56-12.576-1.44-17.248,2.848l-192,176C1.888,247.239,0,251.527,0,256.007    s1.888,8.768,5.184,11.808l192,176c3.008,2.752,6.88,4.192,10.816,4.192c2.176,0,4.384-0.448,6.432-1.344    c5.824-2.56,9.568-8.32,9.568-14.656v-352C224,73.671,220.256,67.911,214.432,65.351z" class="active-path" fill="transparent"/>
	</g>
</g></g> </svg>
